<svg xmlns="http://www.w3.org/2000/svg" xmlns:xlink="http://www.w3.org/1999/xlink" width="500" zoomAndPan="magnify" viewBox="0 0 375 374.999991" height="500" preserveAspectRatio="xMidYMid meet" version="1.0"><defs><g/></defs><path stroke-linecap="butt" transform="matrix(0.732422, 0, 0, 0.732422, 0.0000045, -0.000000000000085265)" fill="none" stroke-linejoin="miter" d="M 448.000025 256.000018 C 448.000025 150.00001 362.000019 64.000004 256.000012 64.000004 C 150.000004 64.000004 63.999998 150.00001 63.999998 256.000018 C 63.999998 362.000025 150.000004 448.000031 256.000012 448.000031 C 362.000019 448.000031 448.000025 362.000025 448.000025 256.000018 Z M 448.000025 256.000018 " stroke="#000000" stroke-width="32" stroke-opacity="1" stroke-miterlimit="10"/><path stroke-linecap="round" transform="matrix(0.732422, 0, 0, 0.732422, 0.0000045, -0.000000000000085265)" fill="none" stroke-linejoin="round" d="M 360.000019 94.592007 L 360.000019 296.000021 M 443.130691 212.869348 L 296.000015 360.000025 M 417.408023 360.000025 L 216.000009 360.000025 M 299.130681 443.130698 L 155.130671 299.130688 M 152.000004 416.000029 L 152.000004 216.000015 M 68.869332 299.130688 L 212.869342 155.130677 M 94.592 152.000011 L 288.000014 152.000011 M 212.869342 68.869338 L 360.000019 216.000015 " stroke="#000000" stroke-width="32" stroke-opacity="1" stroke-miterlimit="4"/><g fill="#000000" fill-opacity="1"><g transform="translate(161.235344, 216.562486)"><g><path d="M 29.25 0.765625 C 24.320312 0.765625 19.976562 -0.253906 16.21875 -2.296875 C 12.457031 -4.347656 9.515625 -7.429688 7.390625 -11.546875 C 5.265625 -15.660156 4.203125 -20.734375 4.203125 -26.765625 C 4.203125 -32.796875 5.265625 -37.863281 7.390625 -41.96875 C 9.515625 -46.082031 12.457031 -49.164062 16.21875 -51.21875 C 19.976562 -53.269531 24.320312 -54.296875 29.25 -54.296875 C 34.40625 -54.296875 38.78125 -53.285156 42.375 -51.265625 C 45.976562 -49.253906 48.550781 -46.1875 50.09375 -42.0625 L 42.359375 -37.34375 L 41.453125 -37.375 C 40.296875 -40.164062 38.734375 -42.164062 36.765625 -43.375 C 34.804688 -44.582031 32.300781 -45.1875 29.25 -45.1875 C 24.8125 -45.1875 21.347656 -43.710938 18.859375 -40.765625 C 16.367188 -37.828125 15.125 -33.160156 15.125 -26.765625 C 15.125 -20.390625 16.367188 -15.734375 18.859375 -12.796875 C 21.347656 -9.859375 24.8125 -8.390625 29.25 -8.390625 C 36.207031 -8.390625 40.46875 -11.769531 42.03125 -18.53125 L 42.953125 -18.53125 L 50.75 -14.46875 C 49.28125 -9.382812 46.773438 -5.570312 43.234375 -3.03125 C 39.703125 -0.5 35.039062 0.765625 29.25 0.765625 Z M 29.25 0.765625 "/></g></g></g></svg>