<svg xmlns="http://www.w3.org/2000/svg" xmlns:xlink="http://www.w3.org/1999/xlink" width="500" zoomAndPan="magnify" viewBox="0 0 375 374.999991" height="500" preserveAspectRatio="xMidYMid meet" version="1.0"><defs><clipPath id="0d918dd5d5"><path d="M 140 16.171875 L 230 16.171875 L 230 358.921875 L 140 358.921875 Z M 140 16.171875 " clip-rule="nonzero"/></clipPath></defs><path fill="#000000" d="M 8.113281 195.570312 L 152.265625 195.570312 C 152.289062 193.378906 152.367188 191.257812 152.367188 189.039062 L 152.367188 185.96875 C 152.367188 183.75 152.289062 181.628906 152.265625 179.445312 L 8.113281 179.445312 C 3.65625 179.445312 0.046875 183.054688 0.046875 187.507812 C 0.046875 191.957031 3.65625 195.570312 8.113281 195.570312 " fill-opacity="1" fill-rule="nonzero"/><g clip-path="url(#0d918dd5d5)"><path fill="#000000" d="M 229.796875 16.140625 L 140.582031 16.140625 C 147.53125 38.054688 164.769531 100.921875 164.769531 185.96875 L 164.769531 189.039062 C 164.769531 274.085938 147.53125 336.964844 140.582031 358.871094 L 229.796875 358.871094 C 222.84375 336.964844 205.609375 274.085938 205.609375 189.039062 L 205.609375 185.96875 C 205.609375 100.921875 222.84375 38.054688 229.796875 16.140625 " fill-opacity="1" fill-rule="nonzero"/></g><path fill="#000000" d="M 298.617188 59.230469 L 320.640625 64.96875 L 221.597656 120.558594 C 220.917969 126.84375 220.324219 133.355469 219.816406 140.054688 L 328.945312 78.804688 L 323.070312 100.125 C 321.894531 104.417969 324.414062 108.863281 328.703125 110.039062 C 329.417969 110.242188 330.144531 110.339844 330.847656 110.339844 C 334.382812 110.339844 337.625 107.988281 338.621094 104.414062 L 349.667969 64.3125 C 350.238281 62.230469 349.957031 60.007812 348.867188 58.136719 C 347.789062 56.269531 346.007812 54.914062 343.925781 54.367188 L 302.683594 43.625 C 298.3125 42.480469 293.976562 45.097656 292.847656 49.398438 C 291.722656 53.707031 294.316406 58.109375 298.617188 59.230469 " fill-opacity="1" fill-rule="nonzero"/><path fill="#000000" d="M 8.113281 142 L 150.703125 142 C 150.304688 136.492188 149.847656 131.113281 149.324219 125.875 L 8.113281 125.875 C 3.65625 125.875 0.046875 129.488281 0.046875 133.9375 C 0.046875 138.390625 3.65625 142 8.113281 142 " fill-opacity="1" fill-rule="nonzero"/><path fill="#000000" d="M 372.425781 181.722656 L 342.230469 152.367188 C 339.054688 149.277344 333.933594 149.347656 330.835938 152.53125 C 327.722656 155.722656 327.792969 160.832031 330.988281 163.933594 L 347.042969 179.542969 L 218.113281 179.542969 C 218.085938 181.695312 218.011719 183.785156 218.011719 185.96875 L 218.011719 189.039062 C 218.011719 191.292969 218.089844 193.441406 218.113281 195.667969 L 346.84375 195.667969 L 330.988281 211.078125 C 327.804688 214.179688 327.722656 219.277344 330.835938 222.476562 C 332.40625 224.101562 334.515625 224.921875 336.609375 224.921875 C 338.632812 224.921875 340.667969 224.160156 342.230469 222.636719 L 372.425781 193.289062 C 373.988281 191.769531 374.871094 189.6875 374.871094 187.507812 C 374.871094 185.324219 373.988281 183.242188 372.425781 181.722656 " fill-opacity="1" fill-rule="nonzero"/><path fill="#000000" d="M 338.621094 270.597656 C 337.421875 266.308594 333 263.789062 328.703125 264.964844 C 324.414062 266.152344 321.894531 270.585938 323.070312 274.886719 L 328.949219 296.210938 L 219.816406 234.960938 C 220.324219 241.660156 220.917969 248.167969 221.597656 254.445312 L 320.640625 310.035156 L 298.617188 315.773438 C 294.304688 316.902344 291.722656 321.300781 292.847656 325.613281 C 293.796875 329.234375 297.066406 331.644531 300.652344 331.644531 C 301.316406 331.644531 302.007812 331.5625 302.683594 331.382812 L 343.925781 320.632812 C 346.007812 320.089844 347.789062 318.730469 348.867188 316.867188 C 349.957031 314.988281 350.238281 312.769531 349.667969 310.6875 L 338.621094 270.597656 " fill-opacity="1" fill-rule="nonzero"/><path fill="#000000" d="M 150.703125 233.015625 L 8.113281 233.015625 C 3.65625 233.015625 0.046875 236.628906 0.046875 241.085938 C 0.046875 245.546875 3.65625 249.15625 8.113281 249.15625 L 149.320312 249.15625 C 149.847656 243.910156 150.304688 238.535156 150.703125 233.015625 " fill-opacity="1" fill-rule="nonzero"/></svg>