<svg xmlns="http://www.w3.org/2000/svg" xmlns:xlink="http://www.w3.org/1999/xlink" width="500" zoomAndPan="magnify" viewBox="0 0 375 374.999991" height="500" preserveAspectRatio="xMidYMid meet" version="1.0"><defs><g/></defs><path stroke-linecap="butt" transform="matrix(0.732422, 0, 0, 0.732422, 0.0000045, -0.000000000000085265)" fill="none" stroke-linejoin="miter" d="M 448.000025 256.000018 C 448.000025 150.00001 362.000019 64.000004 256.000012 64.000004 C 150.000004 64.000004 63.999998 150.00001 63.999998 256.000018 C 63.999998 362.000025 150.000004 448.000031 256.000012 448.000031 C 362.000019 448.000031 448.000025 362.000025 448.000025 256.000018 Z M 448.000025 256.000018 " stroke="#000000" stroke-width="32" stroke-opacity="1" stroke-miterlimit="10"/><path stroke-linecap="round" transform="matrix(0.732422, 0, 0, 0.732422, 0.0000045, -0.000000000000085265)" fill="none" stroke-linejoin="round" d="M 360.000019 94.592007 L 360.000019 296.000021 M 443.130691 212.869348 L 296.000015 360.000025 M 417.408023 360.000025 L 216.000009 360.000025 M 299.130681 443.130698 L 155.130671 299.130688 M 152.000004 416.000029 L 152.000004 216.000015 M 68.869332 299.130688 L 212.869342 155.130677 M 94.592 152.000011 L 288.000014 152.000011 M 212.869342 68.869338 L 360.000019 216.000015 " stroke="#000000" stroke-width="32" stroke-opacity="1" stroke-miterlimit="4"/><g fill="#000000" fill-opacity="1"><g transform="translate(158.876946, 216.562486)"><g><path d="M 26.21875 -53.53125 C 34.90625 -53.53125 41.535156 -51.285156 46.109375 -46.796875 C 50.691406 -42.304688 52.984375 -35.628906 52.984375 -26.765625 C 52.984375 -17.929688 50.691406 -11.257812 46.109375 -6.75 C 41.535156 -2.25 34.90625 0 26.21875 0 L 6.953125 0 L 6.953125 -53.53125 Z M 25.59375 -8.890625 C 31.113281 -8.890625 35.238281 -10.300781 37.96875 -13.125 C 40.695312 -15.945312 42.0625 -20.492188 42.0625 -26.765625 C 42.0625 -33.035156 40.695312 -37.578125 37.96875 -40.390625 C 35.238281 -43.210938 31.113281 -44.625 25.59375 -44.625 L 17.53125 -44.625 L 17.53125 -8.890625 Z M 25.59375 -8.890625 "/></g></g></g></svg>