<svg xmlns="http://www.w3.org/2000/svg" xmlns:xlink="http://www.w3.org/1999/xlink" width="500" zoomAndPan="magnify" viewBox="0 0 375 374.999991" height="500" preserveAspectRatio="xMidYMid meet" version="1.0"><defs><clipPath id="5fea434555"><path d="M 0 65 L 375 65 L 375 310.453125 L 0 310.453125 Z M 0 65 " clip-rule="nonzero"/></clipPath></defs><g clip-path="url(#5fea434555)"><path fill="#000000" d="M 368.710938 158.492188 C 371.941406 158.492188 374.554688 155.882812 374.554688 152.652344 C 374.554688 149.417969 371.941406 146.808594 368.710938 146.808594 L 243.839844 146.808594 L 192.40625 67.707031 C 190.246094 64.390625 184.753906 64.390625 182.59375 67.707031 L 108.339844 181.902344 L 6.289062 181.902344 C 3.058594 181.902344 0.445312 184.515625 0.445312 187.746094 C 0.445312 190.976562 3.058594 193.589844 6.289062 193.589844 L 100.742188 193.589844 L 30.632812 301.414062 C 29.46875 303.214844 29.375 305.5 30.398438 307.378906 C 31.421875 309.261719 33.390625 310.4375 35.535156 310.4375 L 339.464844 310.4375 C 341.609375 310.4375 343.578125 309.261719 344.601562 307.378906 C 345.625 305.5 345.53125 303.207031 344.367188 301.414062 L 297.074219 228.683594 L 368.710938 228.683594 C 371.941406 228.683594 374.554688 226.070312 374.554688 222.839844 C 374.554688 219.609375 371.941406 216.996094 368.710938 216.996094 L 289.472656 216.996094 L 285.664062 211.136719 L 368.710938 211.136719 C 371.941406 211.136719 374.554688 208.523438 374.554688 205.292969 C 374.554688 202.0625 371.941406 199.449219 368.710938 199.449219 L 278.0625 199.449219 L 274.257812 193.589844 L 368.710938 193.589844 C 371.941406 193.589844 374.554688 190.976562 374.554688 187.746094 C 374.554688 184.515625 371.941406 181.902344 368.710938 181.902344 L 266.660156 181.902344 L 262.847656 176.042969 L 368.710938 176.042969 C 371.941406 176.042969 374.554688 173.429688 374.554688 170.199219 C 374.554688 166.964844 371.941406 164.355469 368.710938 164.355469 L 255.25 164.355469 L 251.4375 158.492188 Z M 46.308594 298.753906 L 187.5 81.613281 L 328.691406 298.753906 Z M 46.308594 298.753906 " fill-opacity="1" fill-rule="nonzero"/></g></svg>