<svg xmlns="http://www.w3.org/2000/svg" xmlns:xlink="http://www.w3.org/1999/xlink" width="500" zoomAndPan="magnify" viewBox="0 0 375 374.999991" height="500" preserveAspectRatio="xMidYMid meet" version="1.0"><defs><clipPath id="a5ebac9573"><path d="M 110.171875 131.636719 L 263.921875 131.636719 L 263.921875 235.136719 L 110.171875 235.136719 Z M 110.171875 131.636719 " clip-rule="nonzero"/></clipPath></defs><g clip-path="url(#a5ebac9573)"><path fill="#231f20" d="M 262.199219 235.140625 L 111.898438 235.140625 C 111.679688 235.140625 111.46875 235.097656 111.265625 235.011719 C 111.0625 234.929688 110.882812 234.808594 110.726562 234.652344 C 110.570312 234.496094 110.449219 234.316406 110.367188 234.109375 C 110.28125 233.90625 110.238281 233.695312 110.238281 233.472656 L 110.238281 133.300781 C 110.238281 133.082031 110.28125 132.867188 110.367188 132.664062 C 110.449219 132.460938 110.570312 132.28125 110.726562 132.125 C 110.882812 131.96875 111.0625 131.847656 111.265625 131.765625 C 111.46875 131.679688 111.679688 131.636719 111.898438 131.636719 L 262.199219 131.636719 C 262.417969 131.636719 262.628906 131.679688 262.835938 131.765625 C 263.039062 131.847656 263.21875 131.96875 263.375 132.125 C 263.527344 132.28125 263.648438 132.460938 263.734375 132.664062 C 263.816406 132.867188 263.859375 133.082031 263.859375 133.300781 L 263.859375 233.472656 C 263.859375 233.695312 263.816406 233.90625 263.734375 234.109375 C 263.648438 234.316406 263.527344 234.496094 263.375 234.652344 C 263.21875 234.808594 263.039062 234.929688 262.835938 235.011719 C 262.628906 235.097656 262.417969 235.140625 262.199219 235.140625 Z M 113.5625 231.808594 L 260.535156 231.808594 L 260.535156 134.96875 L 113.5625 134.96875 Z M 113.5625 231.808594 " fill-opacity="1" fill-rule="nonzero"/></g><path stroke-linecap="butt" transform="matrix(0.596329, 0.456077, -0.455626, 0.595739, 93.977444, 58.525309)" fill="none" stroke-linejoin="miter" d="M -0.00134674 1.997768 L 157.854626 2.000554 " stroke="#000000" stroke-width="4" stroke-opacity="1" stroke-miterlimit="4"/><path stroke-linecap="butt" transform="matrix(-0.277485, -0.699572, 0.69716, -0.276528, 225.670127, 232.931498)" fill="none" stroke-linejoin="miter" d="M 0.000380705 1.997358 L 144.507761 1.998676 " stroke="#000000" stroke-width="4" stroke-opacity="1" stroke-miterlimit="4"/><path stroke-linecap="butt" transform="matrix(0.566518, 0.492861, -0.492269, 0.565837, 230.430325, 232.933754)" fill="none" stroke-linejoin="miter" d="M 0.000379016 2.001401 L 155.814936 1.997845 " stroke="#000000" stroke-width="4" stroke-opacity="1" stroke-miterlimit="4"/></svg>