<svg xmlns="http://www.w3.org/2000/svg" xmlns:xlink="http://www.w3.org/1999/xlink" width="500" zoomAndPan="magnify" viewBox="0 0 375 374.999991" height="500" preserveAspectRatio="xMidYMid meet" version="1.0"><path fill="#ffd722" d="M 94.4375 121.085938 C 150.316406 91.109375 204.359375 56.878906 265.617188 38.863281 C 215.175781 11.839844 156.773438 13.953125 105.03125 40.835938 C 105.03125 40.835938 98.96875 68.589844 97.398438 81.960938 C 95.289062 101.628906 94.4375 121.085938 94.4375 121.085938 " fill-opacity="1" fill-rule="nonzero"/><path fill="#ffd722" d="M 204.144531 74.171875 C 255.710938 109.125 312.460938 138.855469 354.796875 185.695312 C 354.796875 129.84375 326.859375 77.097656 279.335938 46.285156 C 281.519531 47.1875 256.78125 51.300781 239.976562 58.925781 C 222.105469 67.035156 204.144531 74.171875 204.144531 74.171875 " fill-opacity="1" fill-rule="nonzero"/><path fill="#ffd722" d="M 85.070312 237.648438 C 84.554688 174.886719 79.152344 111.828125 91.761719 49.671875 C 45.824219 81.199219 20.597656 132.578125 19.617188 187.210938 C 19.617188 187.210938 40.414062 209.113281 52.003906 215.738281 C 68.332031 227.300781 85.070312 237.648438 85.070312 237.648438 " fill-opacity="1" fill-rule="nonzero"/><path fill="#ffd722" d="M 294.230469 146.308594 C 291.742188 207.316406 291.742188 269.472656 275.527344 329.824219 C 320.566406 301.898438 350.21875 253.023438 355.339844 199.371094 C 355.339844 199.371094 334.980469 181.191406 324.992188 171.417969 C 309.898438 158.273438 294.230469 146.308594 294.230469 146.308594 " fill-opacity="1" fill-rule="nonzero"/><path fill="#ffd722" d="M 279.335938 255.167969 C 225.980469 286.582031 173.738281 319.011719 115.183594 338.832031 C 164.4375 359.96875 219.277344 362.214844 263.203125 337.410156 C 263.203125 337.410156 270.125 309.105469 273.023438 295.640625 C 276.859375 275.332031 279.335938 255.167969 279.335938 255.167969 " fill-opacity="1" fill-rule="nonzero"/><path fill="#ffd722" d="M 176.679688 300.90625 C 123.292969 270.371094 67.441406 245.144531 20.597656 204.609375 C 28.65625 257.40625 55.691406 303.394531 100.972656 331.214844 C 100.972656 331.214844 124.339844 324.011719 140.777344 317.597656 C 159.375 310.339844 176.679688 300.90625 176.679688 300.90625 " fill-opacity="1" fill-rule="nonzero"/><path fill="#ffd722" d="M 187.484375 9.765625 C 89.488281 9.765625 9.769531 89.488281 9.769531 187.480469 C 9.769531 285.46875 89.488281 365.191406 187.484375 365.191406 C 285.472656 365.191406 365.191406 285.46875 365.191406 187.480469 C 365.191406 89.488281 285.472656 9.765625 187.484375 9.765625 Z M 187.484375 374.957031 C 84.105469 374.957031 0 290.859375 0 187.480469 C 0 84.101562 84.105469 -0.00390625 187.484375 -0.00390625 C 290.859375 -0.00390625 374.960938 84.101562 374.960938 187.480469 C 374.960938 290.859375 290.859375 374.957031 187.484375 374.957031 " fill-opacity="1" fill-rule="nonzero"/></svg>