<svg xmlns="http://www.w3.org/2000/svg" xmlns:xlink="http://www.w3.org/1999/xlink" width="500" zoomAndPan="magnify" viewBox="0 0 375 374.999991" height="500" preserveAspectRatio="xMidYMid meet" version="1.0"><path fill="#000000" d="M 186.714844 100.636719 L 182.074219 102.621094 C 180.101562 103.46875 179.1875 105.757812 180.035156 107.734375 C 180.667969 109.207031 182.101562 110.089844 183.609375 110.089844 C 184.121094 110.089844 184.644531 109.988281 185.144531 109.769531 L 189.78125 107.785156 C 191.757812 106.933594 192.671875 104.648438 191.824219 102.671875 C 190.96875 100.699219 188.683594 99.761719 186.714844 100.636719 Z M 186.714844 100.636719 " fill-opacity="1" fill-rule="nonzero"/><path fill="#000000" d="M 236.539062 79.28125 L 198.6875 95.5 C 196.710938 96.351562 195.796875 98.636719 196.644531 100.613281 C 197.273438 102.085938 198.710938 102.96875 200.21875 102.96875 C 200.730469 102.96875 201.25 102.871094 201.75 102.65625 L 239.601562 86.4375 C 241.578125 85.585938 242.492188 83.296875 241.644531 81.324219 C 240.792969 79.347656 238.492188 78.429688 236.539062 79.28125 Z M 236.539062 79.28125 " fill-opacity="1" fill-rule="nonzero"/><path fill="#000000" d="M 373.65625 102.863281 L 334.566406 6.039062 C 332.957031 2.0625 328.445312 0.132812 324.488281 1.714844 L 254.65625 29.371094 C 252.730469 30.128906 251.1875 31.632812 250.371094 33.539062 C 249.554688 35.441406 249.53125 37.589844 250.308594 39.511719 L 252.675781 45.382812 L 75.699219 115.929688 C 71.710938 117.519531 69.761719 122.039062 71.351562 126.027344 L 74.4375 133.738281 L 34.335938 150.214844 C 34.3125 150.222656 34.285156 150.21875 34.257812 150.226562 C 34.226562 150.238281 34.207031 150.265625 34.179688 150.277344 L 5.601562 162.019531 C 1.667969 163.636719 -0.238281 168.113281 1.320312 172.070312 L 17.890625 214.085938 C 18.65625 216.023438 20.164062 217.574219 22.082031 218.386719 C 23.054688 218.804688 24.089844 219.007812 25.128906 219.007812 C 26.136719 219.007812 27.140625 218.8125 28.09375 218.425781 L 56.496094 206.730469 C 56.507812 206.726562 56.523438 206.726562 56.535156 206.722656 C 56.546875 206.71875 56.554688 206.707031 56.570312 206.699219 L 96.976562 190.066406 L 100.371094 198.546875 C 101.589844 201.59375 104.511719 203.449219 107.601562 203.449219 C 108.558594 203.449219 109.53125 203.273438 110.476562 202.894531 L 159.320312 183.433594 C 160.917969 186.359375 163.085938 188.894531 165.726562 190.894531 L 96.699219 359.050781 L 55.238281 359.050781 C 50.941406 359.050781 47.457031 362.53125 47.457031 366.832031 C 47.457031 371.132812 50.941406 374.609375 55.238281 374.609375 L 304.203125 374.609375 C 308.496094 374.609375 311.980469 371.132812 311.980469 366.832031 C 311.980469 362.53125 308.496094 359.050781 304.203125 359.050781 L 262.792969 359.050781 L 195.1875 189.675781 C 199.980469 185.398438 203.058594 179.242188 203.058594 172.328125 C 203.058594 170.25 202.699219 168.269531 202.1875 166.347656 L 287.734375 132.21875 L 289.398438 136.339844 C 290.621094 139.371094 293.535156 141.207031 296.613281 141.207031 C 297.570312 141.207031 298.535156 141.035156 299.476562 140.660156 L 369.304688 113.003906 C 371.230469 112.246094 372.773438 110.742188 373.589844 108.835938 C 374.40625 106.933594 374.429688 104.785156 373.65625 102.863281 Z M 29.472656 201.027344 L 18.609375 173.492188 L 32.773438 167.671875 L 43.628906 195.199219 Z M 58.019531 189.273438 L 47.167969 161.761719 L 80.214844 148.183594 L 91.195312 175.617188 Z M 171.941406 359.050781 L 113.523438 359.050781 L 171.941406 216.746094 Z M 182.75 179.492188 C 182.75 179.492188 182.75 179.492188 182.746094 179.492188 C 182.746094 179.496094 182.742188 179.496094 182.742188 179.496094 C 181.8125 179.890625 180.792969 180.109375 179.71875 180.109375 C 175.429688 180.109375 171.941406 176.621094 171.941406 172.328125 C 171.941406 168.035156 175.429688 164.546875 179.71875 164.546875 C 184.007812 164.546875 187.5 168.035156 187.5 172.328125 C 187.5 175.546875 185.539062 178.308594 182.75 179.492188 Z M 246.039062 359.050781 L 187.5 359.050781 L 187.5 212.390625 Z M 193.066406 153.234375 C 189.277344 150.574219 184.6875 148.988281 179.71875 148.988281 C 168.445312 148.988281 159.015625 157.027344 156.851562 167.671875 L 111.945312 185.5625 L 108.503906 176.980469 C 108.496094 176.957031 108.5 176.933594 108.492188 176.910156 C 108.484375 176.890625 108.464844 176.878906 108.457031 176.859375 L 88.679688 127.503906 L 258.5 59.808594 L 281.910156 117.789062 Z M 300.929688 123.347656 L 267.667969 40.949219 L 323.03125 19.03125 L 356.296875 101.425781 Z M 300.929688 123.347656 " fill-opacity="1" fill-rule="nonzero"/></svg>